<svg width="53" height="53" viewBox="0 0 53 53" fill="none" xmlns="http://www.w3.org/2000/svg">
<circle cx="26.5" cy="26.5" r="26.5" fill="#878787"/>
<path d="M25.2383 31.019C25.1722 32.4539 24.7852 33.7236 24.0771 34.8281C23.3691 35.9232 22.3732 36.7728 21.0894 37.377C19.8149 37.9811 18.3564 38.2832 16.7139 38.2832C14.0046 38.2832 11.8711 37.4006 10.3135 35.6353C8.75586 33.87 7.97705 31.3778 7.97705 28.1587V27.1392C7.97705 25.119 8.32633 23.3537 9.0249 21.8433C9.73291 20.3234 10.7477 19.1528 12.0693 18.3315C13.391 17.5008 14.9202 17.0854 16.6572 17.0854C19.1589 17.0854 21.1696 17.7463 22.6895 19.0679C24.2093 20.38 25.0731 22.1925 25.2808 24.5054H20.3247C20.2869 23.2498 19.9707 22.3483 19.376 21.8008C18.7812 21.2533 17.875 20.9795 16.6572 20.9795C15.4206 20.9795 14.5143 21.4421 13.9385 22.3672C13.3626 23.2923 13.0605 24.7697 13.0322 26.7993V28.2578C13.0322 30.4574 13.306 32.0291 13.8535 32.9731C14.4105 33.9172 15.3639 34.3892 16.7139 34.3892C17.8561 34.3892 18.7293 34.1201 19.3335 33.582C19.9377 33.0439 20.2586 32.1896 20.2964 31.019H25.2383ZM35.5894 32.3926L39.6958 17.3828H45.2466L38.3081 38H32.8706L25.9888 17.3828H31.4971L35.5894 32.3926Z" fill="#F5F0EE"/>
</svg>
