<svg width="501" height="498" viewBox="0 0 501 498" fill="none" xmlns="http://www.w3.org/2000/svg">
<path d="M153.136 174.218C11.3756 177.235 -6.82917 341.78 1.78846 423.675C126.744 548.672 183.297 476.475 262.472 484.018C341.646 491.561 364.806 381.65 379.887 298.677C394.968 215.704 330.336 170.447 153.136 174.218Z" fill="#D8B8AA"/>
<path d="M275.593 0.594119C168.834 3.93808 142.839 169.882 213.734 254.177C253.583 273.452 341.345 312 373.595 312C413.908 312 448.66 254.177 484.108 227.704C519.555 201.231 488.973 121.116 484.108 67.4732C479.242 13.8306 409.042 -3.58583 275.593 0.594119Z" fill="#878787"/>
<circle cx="188" cy="85" r="4" fill="white"/>
<circle cx="212" cy="69" r="4" fill="white"/>
<circle cx="201" cy="48" r="4" fill="white"/>
<circle cx="222" cy="33" r="4" fill="white"/>
<circle cx="228" cy="48" r="4" fill="white"/>
<circle cx="249" cy="69" r="4" fill="white"/>
<circle cx="241" cy="20" r="4" fill="white"/>
<circle cx="226" cy="82" r="4" fill="white"/>
<circle cx="261" cy="40" r="4" fill="white"/>
<circle cx="255" cy="97" r="4" fill="white"/>
<circle cx="248" cy="75" r="4" fill="white"/>
<circle cx="272" cy="59" r="4" fill="white"/>
<circle cx="261" cy="38" r="4" fill="white"/>
<circle cx="282" cy="23" r="4" fill="white"/>
<circle cx="288" cy="38" r="4" fill="white"/>
<circle cx="309" cy="59" r="4" fill="white"/>
<circle cx="301" cy="10" r="4" fill="white"/>
<circle cx="286" cy="72" r="4" fill="white"/>
<circle cx="321" cy="30" r="4" fill="white"/>
<circle cx="315" cy="87" r="4" fill="white"/>
<circle cx="178" cy="155" r="4" fill="white"/>
<circle cx="202" cy="139" r="4" fill="white"/>
<circle cx="191" cy="118" r="4" fill="white"/>
<circle cx="212" cy="103" r="4" fill="white"/>
<circle cx="218" cy="118" r="4" fill="white"/>
<circle cx="239" cy="139" r="4" fill="white"/>
<circle cx="231" cy="90" r="4" fill="white"/>
<circle cx="216" cy="152" r="4" fill="white"/>
<circle cx="251" cy="110" r="4" fill="white"/>
<circle cx="245" cy="167" r="4" fill="white"/>
</svg>
