<svg width="316" height="354" viewBox="0 0 316 354" fill="none" xmlns="http://www.w3.org/2000/svg">
<path d="M142.854 106.165C35.6061 108.447 0 242 28.3531 294.797C104.5 394.5 165.673 334.724 225.572 340.427C285.471 346.131 302.992 263.019 314.402 200.277C325.811 137.536 276.914 103.313 142.854 106.165Z" fill="#D8B8AA"/>
<path d="M73.0835 4.42641C-3.71653 6.82641 -22.4165 125.926 28.5835 186.426C41.5 201.749 120.383 227.926 143.583 227.926C172.583 227.926 197.583 186.426 223.083 167.426C248.583 148.426 226.583 90.9264 223.083 52.4264C219.583 13.9264 169.083 1.42641 73.0835 4.42641Z" fill="#878787"/>
<circle cx="17" cy="69" r="4" fill="white"/>
<circle cx="41" cy="53" r="4" fill="white"/>
<circle cx="30" cy="32" r="4" fill="white"/>
<circle cx="51" cy="17" r="4" fill="white"/>
<circle cx="57" cy="32" r="4" fill="white"/>
<circle cx="78" cy="53" r="4" fill="white"/>
<circle cx="70" cy="4" r="4" fill="white"/>
<circle cx="55" cy="66" r="4" fill="white"/>
<circle cx="90" cy="24" r="4" fill="white"/>
<circle cx="84" cy="81" r="4" fill="white"/>
</svg>
