<svg width="914" height="115" viewBox="0 0 914 115" fill="none" xmlns="http://www.w3.org/2000/svg">
<path d="M25.4062 34.9219L27.8969 34.7061L27.6991 32.4219H25.4062V34.9219ZM26.1797 43.8516L23.689 44.0673L24.2473 50.5129L28.1683 45.3667L26.1797 43.8516ZM65.625 40.6172L63.6935 42.2044L63.6982 42.2101L63.7029 42.2158L65.625 40.6172ZM71.7422 61.9922H74.2422V61.9737L74.2419 61.9552L71.7422 61.9922ZM71.7422 111V113.5H74.2422V111H71.7422ZM47.9766 111H45.4766V113.5H47.9766V111ZM45.6562 54.5391L43.7478 56.1539L43.7581 56.1662L43.7687 56.1783L45.6562 54.5391ZM26.8828 57.2812L24.7537 55.971L24.3828 56.5736V57.2812H26.8828ZM26.8828 111V113.5H29.3828V111H26.8828ZM3.1875 111H0.6875V113.5H3.1875V111ZM3.1875 34.9219V32.4219H0.6875V34.9219H3.1875ZM22.9156 35.1376L23.689 44.0673L28.6704 43.6358L27.8969 34.7061L22.9156 35.1376ZM28.1683 45.3667C32.9103 39.1427 39.3923 36.0156 47.9062 36.0156V31.0156C37.9514 31.0156 29.9491 34.7792 24.1911 42.3365L28.1683 45.3667ZM47.9062 36.0156C55.3164 36.0156 60.4098 38.2085 63.6935 42.2044L67.5565 39.0299C63.059 33.5571 56.3399 31.0156 47.9062 31.0156V36.0156ZM63.7029 42.2158C67.1227 46.3277 69.1059 52.7895 69.2425 62.0291L74.2419 61.9552C74.0972 52.1637 72.0023 44.3754 67.5471 39.0186L63.7029 42.2158ZM69.2422 61.9922V111H74.2422V61.9922H69.2422ZM71.7422 108.5H47.9766V113.5H71.7422V108.5ZM50.4766 111V62.9766H45.4766V111H50.4766ZM50.4766 62.9766C50.4766 58.8852 49.6686 55.3466 47.5438 52.8998L43.7687 56.1783C44.7376 57.294 45.4766 59.3804 45.4766 62.9766H50.4766ZM47.5647 52.9242C45.2954 50.2423 41.5352 49.2969 37.2188 49.2969V54.2969C41.0585 54.2969 42.9233 55.1795 43.7478 56.1539L47.5647 52.9242ZM37.2188 49.2969C31.7946 49.2969 27.5013 51.5061 24.7537 55.971L29.012 58.5915C30.7643 55.7439 33.3617 54.2969 37.2188 54.2969V49.2969ZM24.3828 57.2812V111H29.3828V57.2812H24.3828ZM26.8828 108.5H3.1875V113.5H26.8828V108.5ZM5.6875 111V34.9219H0.6875V111H5.6875ZM3.1875 37.4219H25.4062V32.4219H3.1875V37.4219ZM109.922 111V113.5H112.422V111H109.922ZM86.1562 111H83.6562V113.5H86.1562V111ZM86.1562 34.9219V32.4219H83.6562V34.9219H86.1562ZM109.922 34.9219H112.422V32.4219H109.922V34.9219ZM109.922 108.5H86.1562V113.5H109.922V108.5ZM88.6562 111V34.9219H83.6562V111H88.6562ZM86.1562 37.4219H109.922V32.4219H86.1562V37.4219ZM107.422 34.9219V111H112.422V34.9219H107.422ZM87.25 15.3047C87.25 12.6156 88.1838 10.5424 90.0627 8.8803L86.7498 5.13532C83.7537 7.78577 82.25 11.2438 82.25 15.3047H87.25ZM90.0627 8.8803C91.9571 7.20446 94.4925 6.27344 97.8984 6.27344V1.27344C93.5231 1.27344 89.7304 2.49867 86.7498 5.13532L90.0627 8.8803ZM97.8984 6.27344C101.304 6.27344 103.84 7.20446 105.734 8.8803L109.047 5.13532C106.066 2.49867 102.274 1.27344 97.8984 1.27344V6.27344ZM105.734 8.8803C107.613 10.5424 108.547 12.6156 108.547 15.3047H113.547C113.547 11.2438 112.043 7.78577 109.047 5.13532L105.734 8.8803ZM108.547 15.3047C108.547 17.9938 107.613 20.067 105.734 21.7291L109.047 25.4741C112.043 22.8236 113.547 19.3656 113.547 15.3047H108.547ZM105.734 21.7291C103.84 23.4049 101.304 24.3359 97.8984 24.3359V29.3359C102.274 29.3359 106.066 28.1107 109.047 25.4741L105.734 21.7291ZM97.8984 24.3359C94.4925 24.3359 91.9571 23.4049 90.0627 21.7291L86.7498 25.4741C89.7304 28.1107 93.5231 29.3359 97.8984 29.3359V24.3359ZM90.0627 21.7291C88.1838 20.067 87.25 17.9938 87.25 15.3047H82.25C82.25 19.3656 83.7537 22.8236 86.7498 25.4741L90.0627 21.7291ZM146.344 34.9219L148.834 34.7061L148.637 32.4219H146.344V34.9219ZM147.117 43.8516L144.627 44.0673L145.185 50.5129L149.106 45.3667L147.117 43.8516ZM186.562 40.6172L184.631 42.2044L184.636 42.2101L184.64 42.2158L186.562 40.6172ZM192.68 61.9922H195.18V61.9737L195.179 61.9552L192.68 61.9922ZM192.68 111V113.5H195.18V111H192.68ZM168.914 111H166.414V113.5H168.914V111ZM166.594 54.5391L164.685 56.1539L164.696 56.1662L164.706 56.1783L166.594 54.5391ZM147.82 57.2812L145.691 55.971L145.32 56.5736V57.2812H147.82ZM147.82 111V113.5H150.32V111H147.82ZM124.125 111H121.625V113.5H124.125V111ZM124.125 34.9219V32.4219H121.625V34.9219H124.125ZM143.853 35.1376L144.627 44.0673L149.608 43.6358L148.834 34.7061L143.853 35.1376ZM149.106 45.3667C153.848 39.1427 160.33 36.0156 168.844 36.0156V31.0156C158.889 31.0156 150.887 34.7792 145.129 42.3365L149.106 45.3667ZM168.844 36.0156C176.254 36.0156 181.347 38.2085 184.631 42.2044L188.494 39.0299C183.996 33.5571 177.277 31.0156 168.844 31.0156V36.0156ZM184.64 42.2158C188.06 46.3277 190.043 52.7895 190.18 62.0291L195.179 61.9552C195.035 52.1637 192.94 44.3754 188.485 39.0186L184.64 42.2158ZM190.18 61.9922V111H195.18V61.9922H190.18ZM192.68 108.5H168.914V113.5H192.68V108.5ZM171.414 111V62.9766H166.414V111H171.414ZM171.414 62.9766C171.414 58.8852 170.606 55.3466 168.481 52.8998L164.706 56.1783C165.675 57.294 166.414 59.3804 166.414 62.9766H171.414ZM168.502 52.9242C166.233 50.2423 162.473 49.2969 158.156 49.2969V54.2969C161.996 54.2969 163.861 55.1795 164.685 56.1539L168.502 52.9242ZM158.156 49.2969C152.732 49.2969 148.439 51.5061 145.691 55.971L149.949 58.5915C151.702 55.7439 154.299 54.2969 158.156 54.2969V49.2969ZM145.32 57.2812V111H150.32V57.2812H145.32ZM147.82 108.5H124.125V113.5H147.82V108.5ZM126.625 111V34.9219H121.625V111H126.625ZM124.125 37.4219H146.344V32.4219H124.125V37.4219ZM248.719 111L246.524 112.197L247.235 113.5H248.719V111ZM246.469 104.18L248.911 103.645L247.786 98.5043L244.512 102.624L246.469 104.18ZM209.906 105.938L208.266 107.824L208.276 107.833L209.906 105.938ZM211.523 70.8516L210.1 68.7961L211.523 70.8516ZM245.414 64.5234V67.0234H247.914V64.5234H245.414ZM227.906 58.3359V60.8359H230.406V58.3359H227.906ZM204.211 58.3359H201.711V60.8359H204.211V58.3359ZM213.562 40.4062L212.087 38.3883L212.079 38.3936L213.562 40.4062ZM269.18 60.0938H271.68V60.0724L271.679 60.0511L269.18 60.0938ZM269.18 93.7734H266.68V93.7902L266.68 93.807L269.18 93.7734ZM272.414 109.805H274.914V109.155L274.598 108.588L272.414 109.805ZM272.414 111V113.5H274.914V111H272.414ZM241.195 93.6328L239.843 91.5299L239.832 91.5373L239.82 91.5449L241.195 93.6328ZM245.414 89.3438L247.624 90.5135L247.914 89.9647V89.3438H245.414ZM245.414 77.1797H247.914V74.6797H245.414V77.1797ZM228.328 93.5625L226.62 95.3882L226.636 95.4031L226.652 95.4178L228.328 93.5625ZM250.913 109.803C250.237 108.563 249.548 106.558 248.911 103.645L244.027 104.714C244.702 107.801 245.513 110.343 246.524 112.197L250.913 109.803ZM244.512 102.624C240.686 107.436 235.355 109.906 228.188 109.906V114.906C236.676 114.906 243.532 111.892 248.426 105.735L244.512 102.624ZM228.188 109.906C221.559 109.906 216.059 107.93 211.536 104.042L208.276 107.833C213.785 112.57 220.472 114.906 228.188 114.906V109.906ZM211.546 104.051C207.069 100.159 204.883 95.3829 204.883 89.5547H199.883C199.883 96.8514 202.712 102.997 208.266 107.824L211.546 104.051ZM204.883 89.5547C204.883 82.0167 207.612 76.6004 212.946 72.907L210.1 68.7961C203.248 73.5402 199.883 80.5927 199.883 89.5547H204.883ZM212.946 72.907C218.446 69.0997 226.718 67.0234 238.102 67.0234V62.0234C226.236 62.0234 216.788 64.1659 210.1 68.7961L212.946 72.907ZM238.102 67.0234H245.414V62.0234H238.102V67.0234ZM247.914 64.5234V60.5156H242.914V64.5234H247.914ZM247.914 60.5156C247.914 56.7193 247.1 53.4054 245.037 51.0218C242.913 48.5694 239.854 47.5391 236.344 47.5391V52.5391C238.88 52.5391 240.356 53.2548 241.256 54.2946C242.216 55.4032 242.914 57.3275 242.914 60.5156H247.914ZM236.344 47.5391C233.156 47.5391 230.305 48.323 228.263 50.3307C226.213 52.3461 225.406 55.1742 225.406 58.3359H230.406C230.406 55.9664 231.006 54.6461 231.768 53.8958C232.539 53.138 233.906 52.5391 236.344 52.5391V47.5391ZM227.906 55.8359H204.211V60.8359H227.906V55.8359ZM206.711 58.3359C206.711 51.8184 209.411 46.5703 215.046 42.4189L212.079 38.3936C205.245 43.4297 201.711 50.1348 201.711 58.3359H206.711ZM215.038 42.4242C220.795 38.2138 228.234 36.0156 237.539 36.0156V31.0156C227.438 31.0156 218.892 33.4112 212.087 38.3883L215.038 42.4242ZM237.539 36.0156C246.844 36.0156 253.874 38.2817 258.921 42.5299L262.141 38.7045C255.938 33.484 247.641 31.0156 237.539 31.0156V36.0156ZM258.921 42.5299C263.922 46.7388 266.55 52.5103 266.68 60.1364L271.679 60.0511C271.528 51.1772 268.39 43.9643 262.141 38.7045L258.921 42.5299ZM266.68 60.0938V93.7734H271.68V60.0938H266.68ZM266.68 93.807C266.776 100.968 267.875 106.793 270.23 111.021L274.598 108.588C272.828 105.41 271.771 100.548 271.679 93.7399L266.68 93.807ZM269.914 109.805V111H274.914V109.805H269.914ZM272.414 108.5H248.719V113.5H272.414V108.5ZM233.883 98.0312C237.187 98.0312 240.139 97.3219 242.57 95.7207L239.82 91.5449C238.408 92.475 236.485 93.0312 233.883 93.0312V98.0312ZM242.547 95.7358C244.772 94.3052 246.528 92.5835 247.624 90.5135L243.205 88.174C242.613 89.2915 241.556 90.4291 239.843 91.5299L242.547 95.7358ZM247.914 89.3438V77.1797H242.914V89.3438H247.914ZM245.414 74.6797H238.523V79.6797H245.414V74.6797ZM238.523 74.6797C234.076 74.6797 230.273 75.6721 227.572 78.0967C224.82 80.5674 223.648 84.1267 223.648 88.2891H228.648C228.648 85.0452 229.539 83.0498 230.912 81.8174C232.336 80.5389 234.721 79.6797 238.523 79.6797V74.6797ZM223.648 88.2891C223.648 91.0727 224.617 93.5137 226.62 95.3882L230.036 91.7368C229.133 90.8925 228.648 89.8179 228.648 88.2891H223.648ZM226.652 95.4178C228.633 97.2069 231.112 98.0312 233.883 98.0312V93.0312C232.153 93.0312 230.929 92.5431 230.004 91.7072L226.652 95.4178ZM361.992 41.5312L360.105 43.1705L364.492 48.2228V41.5312H361.992ZM361.992 3V0.5H359.492V3H361.992ZM385.758 3H388.258V0.5H385.758V3ZM385.758 111V113.5H388.258V111H385.758ZM364.453 111L361.98 111.363L362.293 113.5H364.453V111ZM363.258 102.844L365.731 102.481L364.872 96.6173L361.272 101.325L363.258 102.844ZM338.93 73.875L336.43 73.8347L336.43 73.8548V73.875H338.93ZM361.992 87.5156L364.219 88.6526L364.492 88.117V87.5156H361.992ZM361.992 58.5469H364.492V57.9788L364.247 57.4666L361.992 58.5469ZM339 69.5156L336.503 69.3868L336.501 69.431L336.5 69.4753L339 69.5156ZM317.734 72.3984C317.734 60.6865 320.266 51.7866 325.039 45.4219L321.039 42.4219C315.406 49.9321 312.734 60.0166 312.734 72.3984H317.734ZM325.039 45.4219C329.73 39.1672 336.226 36.0156 344.836 36.0156V31.0156C334.79 31.0156 326.754 34.8015 321.039 42.4219L325.039 45.4219ZM344.836 36.0156C350.875 36.0156 355.916 38.3477 360.105 43.1705L363.88 39.892C358.787 34.0273 352.39 31.0156 344.836 31.0156V36.0156ZM364.492 41.5312V3H359.492V41.5312H364.492ZM361.992 5.5H385.758V0.5H361.992V5.5ZM383.258 3V111H388.258V3H383.258ZM385.758 108.5H364.453V113.5H385.758V108.5ZM366.927 110.637L365.731 102.481L360.784 103.206L361.98 111.363L366.927 110.637ZM361.272 101.325C356.832 107.132 351.356 109.906 344.695 109.906V114.906C353.035 114.906 359.934 111.306 365.244 104.362L361.272 101.325ZM344.695 109.906C336.395 109.906 329.971 106.775 325.167 100.483L321.193 103.517C326.982 111.1 334.902 114.906 344.695 114.906V109.906ZM325.167 100.483C320.326 94.1427 317.734 84.8926 317.734 72.3984H312.734C312.734 85.498 315.44 95.9823 321.193 103.517L325.167 100.483ZM336.43 73.875C336.43 80.7862 337.423 86.3789 339.723 90.3222C342.144 94.4726 345.924 96.625 350.742 96.625V91.625C347.685 91.625 345.559 90.4024 344.042 87.8028C342.405 84.9961 341.43 80.4638 341.43 73.875H336.43ZM350.742 96.625C353.72 96.625 356.427 95.9978 358.759 94.6282C361.098 93.2535 362.908 91.2198 364.219 88.6526L359.766 86.3787C358.827 88.2177 357.636 89.4887 356.226 90.3171C354.807 91.1506 353.014 91.625 350.742 91.625V96.625ZM364.492 87.5156V58.5469H359.492V87.5156H364.492ZM364.247 57.4666C362.992 54.8472 361.222 52.7612 358.896 51.3478C356.578 49.9393 353.869 49.2969 350.883 49.2969V54.2969C353.147 54.2969 354.915 54.7795 356.299 55.6209C357.677 56.4576 358.837 57.7466 359.738 59.6272L364.247 57.4666ZM350.883 49.2969C346.421 49.2969 342.812 51.1656 340.351 54.8341C338.003 58.3354 336.818 63.2957 336.503 69.3868L341.497 69.6444C341.792 63.923 342.891 60.024 344.504 57.619C346.005 55.3813 348.032 54.2969 350.883 54.2969V49.2969ZM336.5 69.4753L336.43 73.8347L341.429 73.9153L341.5 69.5559L336.5 69.4753ZM407.695 102L405.957 103.797L405.963 103.803L407.695 102ZM401.156 52.2188L398.91 51.122L398.906 51.1292L398.903 51.1363L401.156 52.2188ZM413.812 38.4375L415.074 40.5956L415.081 40.5916L415.088 40.5876L413.812 38.4375ZM458.812 43.5L456.981 45.2021L456.987 45.2086L458.812 43.5ZM468.094 80.4141V82.9141H470.594V80.4141H468.094ZM420.984 80.4141V77.9141H417.941L418.532 80.8992L420.984 80.4141ZM455.227 86.25L457.135 84.6351L455.177 82.3208L453.278 84.684L455.227 86.25ZM466.055 99.0469L468.08 100.513L469.228 98.927L467.963 97.432L466.055 99.0469ZM453.469 108.82L454.482 111.106L454.491 111.102L453.469 108.82ZM420.984 65.5781L418.509 65.2246L418.102 68.0781H420.984V65.5781ZM444.891 65.5781V68.0781H447.391V65.5781H444.891ZM444.891 63.75L442.391 63.6883L442.391 63.7191V63.75H444.891ZM442.008 54.9609L440.2 56.6881L440.21 56.6982L440.22 56.7083L442.008 54.9609ZM436.031 109.906C424.89 109.906 416.104 106.614 409.428 100.197L405.963 103.803C413.724 111.261 423.828 114.906 436.031 114.906V109.906ZM409.434 100.203C402.758 93.7444 399.367 85.3505 399.367 74.7891H394.367C394.367 86.5401 398.195 96.2868 405.957 103.797L409.434 100.203ZM399.367 74.7891V72.8203H394.367V74.7891H399.367ZM399.367 72.8203C399.367 65.3475 400.739 58.8615 403.41 53.3012L398.903 51.1363C395.855 57.4823 394.367 64.7306 394.367 72.8203H399.367ZM403.403 53.3155C406.1 47.7896 409.984 43.5723 415.074 40.5956L412.551 36.2794C406.579 39.7715 402.025 44.7416 398.91 51.122L403.403 53.3155ZM415.088 40.5876C420.168 37.5738 426.273 36.0156 433.5 36.0156V31.0156C425.539 31.0156 418.519 32.7387 412.537 36.2874L415.088 40.5876ZM433.5 36.0156C443.626 36.0156 451.351 39.1447 456.981 45.2021L460.644 41.7979C453.899 34.5428 444.749 31.0156 433.5 31.0156V36.0156ZM456.987 45.2086C462.62 51.2255 465.594 59.7759 465.594 71.2031H470.594C470.594 58.9116 467.38 48.9932 460.638 41.7914L456.987 45.2086ZM465.594 71.2031V80.4141H470.594V71.2031H465.594ZM468.094 77.9141H420.984V82.9141H468.094V77.9141ZM418.532 80.8992C419.467 85.6264 421.564 89.5124 424.917 92.3713L428.161 88.5662C425.796 86.5501 424.189 83.733 423.437 79.929L418.532 80.8992ZM424.917 92.3713C428.319 95.2713 432.637 96.625 437.648 96.625V91.625C433.566 91.625 430.478 90.5412 428.161 88.5662L424.917 92.3713ZM437.648 96.625C445.808 96.625 452.424 93.7287 457.175 87.816L453.278 84.684C449.592 89.2713 444.489 91.625 437.648 91.625V96.625ZM453.318 87.8649L464.146 100.662L467.963 97.432L457.135 84.6351L453.318 87.8649ZM464.03 97.5806C461.377 101.244 457.558 104.248 452.446 106.539L454.491 111.102C460.255 108.518 464.826 105.006 468.08 100.513L464.03 97.5806ZM452.455 106.535C447.402 108.776 441.937 109.906 436.031 109.906V114.906C442.594 114.906 448.754 113.646 454.482 111.106L452.455 106.535ZM433.359 49.2969C429.278 49.2969 425.801 50.6785 423.202 53.5719C420.681 56.3792 419.203 60.372 418.509 65.2246L423.459 65.9317C424.079 61.5967 425.319 58.6989 426.923 56.9125C428.449 55.2121 430.503 54.2969 433.359 54.2969V49.2969ZM420.984 68.0781H444.891V63.0781H420.984V68.0781ZM447.391 65.5781V63.75H442.391V65.5781H447.391ZM447.39 63.8117C447.495 59.5633 446.419 55.8974 443.796 53.2136L440.22 56.7083C441.628 58.1495 442.474 60.343 442.391 63.6883L447.39 63.8117ZM443.815 53.2338C441.203 50.4998 437.587 49.2969 433.359 49.2969V54.2969C436.632 54.2969 438.782 55.2033 440.2 56.6881L443.815 53.2338ZM553.453 91.4531L555.198 93.2437L555.209 93.2324L555.221 93.2209L553.453 91.4531ZM556.125 83.8594V81.3594H553.589L553.625 83.8956L556.125 83.8594ZM578.344 83.8594H580.844V81.3594H578.344V83.8594ZM569.344 104.391L567.681 102.524L567.674 102.53L569.344 104.391ZM514.781 51.8672L512.531 50.7778L512.527 50.7854L514.781 51.8672ZM527.086 38.2969L528.353 40.4522L528.36 40.4481L528.367 40.4439L527.086 38.2969ZM578.344 64.0312V66.5312H580.844V64.0312H578.344ZM556.125 64.0312H553.625V66.5312H556.125V64.0312ZM534.75 63.5391L537.228 63.8664L537.229 63.8656L534.75 63.5391ZM545.719 96.625C549.493 96.625 552.774 95.6055 555.198 93.2437L551.708 89.6626C550.476 90.8633 548.601 91.625 545.719 91.625V96.625ZM555.221 93.2209C557.641 90.8012 558.679 87.5531 558.625 83.8232L553.625 83.8956C553.665 86.6344 552.922 88.4488 551.685 89.6854L555.221 93.2209ZM556.125 86.3594H578.344V81.3594H556.125V86.3594ZM575.844 83.8594C575.844 91.5211 573.126 97.6747 567.681 102.524L571.006 106.258C577.562 100.419 580.844 92.8852 580.844 83.8594H575.844ZM567.674 102.53C562.259 107.391 555.203 109.906 546.281 109.906V114.906C556.203 114.906 564.522 112.078 571.014 106.251L567.674 102.53ZM546.281 109.906C535.785 109.906 527.784 106.64 521.966 100.308L518.284 103.692C525.216 111.235 534.652 114.906 546.281 114.906V109.906ZM521.966 100.308C516.131 93.9585 513.062 85.0221 513.062 73.1719H508.062C508.062 85.8841 511.369 96.1665 518.284 103.692L521.966 100.308ZM513.062 73.1719V72.1875H508.062V73.1719H513.062ZM513.062 72.1875C513.062 64.8066 514.412 58.4145 517.035 52.949L512.527 50.7854C509.526 57.0386 508.062 64.1934 508.062 72.1875H513.062ZM517.031 52.9566C519.689 47.4675 523.46 43.3275 528.353 40.4522L525.819 36.1416C520.024 39.5475 515.592 44.4543 512.531 50.7778L517.031 52.9566ZM528.367 40.4439C533.26 37.5252 539.129 36.0156 546.07 36.0156V31.0156C538.387 31.0156 531.599 32.6936 525.805 36.1498L528.367 40.4439ZM546.07 36.0156C555.482 36.0156 562.665 38.6122 567.909 43.5605L571.341 39.9238C564.96 33.9034 556.44 31.0156 546.07 31.0156V36.0156ZM567.909 43.5605C573.134 48.4904 575.844 55.2149 575.844 64.0312H580.844C580.844 54.0976 577.741 45.9627 571.341 39.9238L567.909 43.5605ZM578.344 61.5312H556.125V66.5312H578.344V61.5312ZM558.625 64.0312C558.625 59.709 557.568 55.997 555.09 53.2772L551.394 56.6447C552.76 58.1436 553.625 60.4785 553.625 64.0312H558.625ZM555.09 53.2772C552.629 50.5758 549.342 49.2969 545.508 49.2969V54.2969C548.143 54.2969 550.012 55.1273 551.394 56.6447L555.09 53.2772ZM545.508 49.2969C541.857 49.2969 538.712 50.487 536.37 53.0436C534.099 55.5221 532.823 59.0245 532.271 63.2125L537.229 63.8656C537.708 60.2255 538.741 57.8568 540.056 56.4212C541.3 55.0638 543.018 54.2969 545.508 54.2969V49.2969ZM532.272 63.2117C531.922 65.8555 531.758 69.4031 531.758 73.8047H536.758C536.758 69.4875 536.921 66.1914 537.228 63.8664L532.272 63.2117ZM531.758 73.8047C531.758 81.4739 532.644 87.4087 534.874 91.0112L539.126 88.3794C537.7 86.0757 536.758 81.4167 536.758 73.8047H531.758ZM534.874 91.0112C537.232 94.82 541.019 96.625 545.719 96.625V91.625C542.45 91.625 540.424 90.4768 539.126 88.3794L534.874 91.0112ZM631.219 111L629.024 112.197L629.735 113.5H631.219V111ZM628.969 104.18L631.411 103.645L630.286 98.5043L627.012 102.624L628.969 104.18ZM592.406 105.938L590.766 107.824L590.776 107.833L592.406 105.938ZM594.023 70.8516L592.6 68.7961L594.023 70.8516ZM627.914 64.5234V67.0234H630.414V64.5234H627.914ZM610.406 58.3359V60.8359H612.906V58.3359H610.406ZM586.711 58.3359H584.211V60.8359H586.711V58.3359ZM596.062 40.4062L594.587 38.3883L594.58 38.3936L596.062 40.4062ZM651.68 60.0938H654.18V60.0724L654.179 60.0511L651.68 60.0938ZM651.68 93.7734H649.18V93.7902L649.18 93.807L651.68 93.7734ZM654.914 109.805H657.414V109.155L657.098 108.588L654.914 109.805ZM654.914 111V113.5H657.414V111H654.914ZM623.695 93.6328L622.343 91.5299L622.332 91.5373L622.32 91.5449L623.695 93.6328ZM627.914 89.3438L630.124 90.5135L630.414 89.9647V89.3438H627.914ZM627.914 77.1797H630.414V74.6797H627.914V77.1797ZM610.828 93.5625L609.12 95.3882L609.136 95.4031L609.152 95.4178L610.828 93.5625ZM633.414 109.803C632.737 108.563 632.048 106.558 631.411 103.645L626.526 104.714C627.202 107.801 628.013 110.343 629.024 112.197L633.414 109.803ZM627.012 102.624C623.186 107.436 617.855 109.906 610.688 109.906V114.906C619.176 114.906 626.032 111.892 630.926 105.735L627.012 102.624ZM610.688 109.906C604.059 109.906 598.559 107.93 594.036 104.042L590.776 107.833C596.285 112.57 602.972 114.906 610.688 114.906V109.906ZM594.046 104.051C589.569 100.159 587.383 95.3829 587.383 89.5547H582.383C582.383 96.8514 585.212 102.997 590.766 107.824L594.046 104.051ZM587.383 89.5547C587.383 82.0167 590.112 76.6004 595.446 72.907L592.6 68.7961C585.748 73.5402 582.383 80.5927 582.383 89.5547H587.383ZM595.446 72.907C600.946 69.0997 609.218 67.0234 620.602 67.0234V62.0234C608.736 62.0234 599.288 64.1659 592.6 68.7961L595.446 72.907ZM620.602 67.0234H627.914V62.0234H620.602V67.0234ZM630.414 64.5234V60.5156H625.414V64.5234H630.414ZM630.414 60.5156C630.414 56.7193 629.6 53.4054 627.537 51.0218C625.413 48.5694 622.354 47.5391 618.844 47.5391V52.5391C621.38 52.5391 622.856 53.2548 623.756 54.2946C624.716 55.4032 625.414 57.3275 625.414 60.5156H630.414ZM618.844 47.5391C615.656 47.5391 612.805 48.323 610.763 50.3307C608.713 52.3461 607.906 55.1742 607.906 58.3359H612.906C612.906 55.9664 613.506 54.6461 614.268 53.8958C615.039 53.138 616.406 52.5391 618.844 52.5391V47.5391ZM610.406 55.8359H586.711V60.8359H610.406V55.8359ZM589.211 58.3359C589.211 51.8184 591.911 46.5703 597.545 42.4189L594.58 38.3936C587.745 43.4297 584.211 50.1348 584.211 58.3359H589.211ZM597.538 42.4242C603.295 38.2138 610.734 36.0156 620.039 36.0156V31.0156C609.938 31.0156 601.392 33.4112 594.587 38.3883L597.538 42.4242ZM620.039 36.0156C629.344 36.0156 636.374 38.2817 641.421 42.5299L644.641 38.7045C638.438 33.484 630.141 31.0156 620.039 31.0156V36.0156ZM641.421 42.5299C646.422 46.7388 649.05 52.5103 649.18 60.1364L654.179 60.0511C654.028 51.1772 650.89 43.9643 644.641 38.7045L641.421 42.5299ZM649.18 60.0938V93.7734H654.18V60.0938H649.18ZM649.18 93.807C649.276 100.968 650.375 106.793 652.73 111.021L657.098 108.588C655.328 105.41 654.271 100.548 654.179 93.7399L649.18 93.807ZM652.414 109.805V111H657.414V109.805H652.414ZM654.914 108.5H631.219V113.5H654.914V108.5ZM616.383 98.0312C619.687 98.0312 622.639 97.3219 625.07 95.7207L622.32 91.5449C620.908 92.475 618.984 93.0312 616.383 93.0312V98.0312ZM625.047 95.7358C627.272 94.3052 629.028 92.5835 630.124 90.5135L625.705 88.174C625.113 89.2915 624.056 90.4291 622.343 91.5299L625.047 95.7358ZM630.414 89.3438V77.1797H625.414V89.3438H630.414ZM627.914 74.6797H621.023V79.6797H627.914V74.6797ZM621.023 74.6797C616.576 74.6797 612.773 75.6721 610.072 78.0967C607.32 80.5674 606.148 84.1267 606.148 88.2891H611.148C611.148 85.0452 612.039 83.0498 613.412 81.8174C614.836 80.5389 617.221 79.6797 621.023 79.6797V74.6797ZM606.148 88.2891C606.148 91.0727 607.117 93.5137 609.12 95.3882L612.536 91.7368C611.633 90.8925 611.148 89.8179 611.148 88.2891H606.148ZM609.152 95.4178C611.133 97.2069 613.612 98.0312 616.383 98.0312V93.0312C614.653 93.0312 613.429 92.5431 612.504 91.7072L609.152 95.4178ZM674.883 75.8438L673.66 78.0241L673.67 78.0298L673.68 78.0354L674.883 75.8438ZM671.719 40.3359L673.257 42.3068L673.267 42.299L671.719 40.3359ZM727.688 58.2656V60.7656H730.188V58.2656H727.688ZM703.922 58.2656H701.422V60.7656H703.922V58.2656ZM688.031 51.2344L689.6 53.1813L689.616 53.1682L689.632 53.1549L688.031 51.2344ZM698.438 64.7344L697.977 67.1916L697.981 67.1924L698.438 64.7344ZM710.391 67.7578L711.204 65.394L711.201 65.3927L710.391 67.7578ZM718.266 105.867L716.826 103.823L716.818 103.829L718.266 105.867ZM660.68 86.6016V84.1016H658.18V86.6016H660.68ZM682.828 86.6016L685.327 86.5349L685.262 84.1016H682.828V86.6016ZM686.344 94.3359L684.871 96.356L684.885 96.3661L684.899 96.376L686.344 94.3359ZM702.234 94.7578L700.673 92.8056L700.659 92.8167L700.645 92.828L702.234 94.7578ZM707.195 89.625C707.195 86.5169 705.474 84.1645 702.782 82.6088L700.281 86.9381C701.807 87.8199 702.195 88.7019 702.195 89.625H707.195ZM702.782 82.6088C700.302 81.1757 695.944 79.8459 690.05 78.5361L688.966 83.417C694.884 84.7322 698.542 85.9337 700.281 86.9381L702.782 82.6088ZM690.05 78.5361C684.294 77.2569 679.66 75.6138 676.086 73.6521L673.68 78.0354C677.793 80.2925 682.909 82.0712 688.966 83.417L690.05 78.5361ZM676.106 73.6634C672.538 71.662 669.934 69.3131 668.179 66.6597L664.009 69.4184C666.285 72.8588 669.54 75.713 673.66 78.0241L676.106 73.6634ZM668.179 66.6597C666.455 64.0541 665.57 61.0494 665.57 57.5625H660.57C660.57 61.9506 661.701 65.9303 664.009 69.4184L668.179 66.6597ZM665.57 57.5625C665.57 51.3894 668.065 46.3589 673.257 42.3067L670.181 38.3651C663.841 43.3129 660.57 49.7669 660.57 57.5625H665.57ZM673.267 42.299C678.484 38.1847 685.439 36.0156 694.359 36.0156V31.0156C684.624 31.0156 676.485 33.3934 670.171 38.3729L673.267 42.299ZM694.359 36.0156C704.023 36.0156 711.51 38.2043 717.052 42.3396L720.042 38.3322C713.397 33.3738 704.758 31.0156 694.359 31.0156V36.0156ZM717.052 42.3396C722.533 46.4294 725.188 51.6728 725.188 58.2656H730.188C730.188 50.0459 726.748 43.3362 720.042 38.3322L717.052 42.3396ZM727.688 55.7656H703.922V60.7656H727.688V55.7656ZM706.422 58.2656C706.422 54.799 705.502 51.7484 703.234 49.5967C700.992 47.4683 697.854 46.625 694.289 46.625V51.625C697.146 51.625 698.825 52.3052 699.793 53.2236C700.736 54.1188 701.422 55.6385 701.422 58.2656H706.422ZM694.289 46.625C691.301 46.625 688.626 47.4842 686.431 49.3138L689.632 53.1549C690.811 52.172 692.308 51.625 694.289 51.625V46.625ZM686.463 49.2875C684.221 51.0937 683 53.5051 683 56.3672H688C688 55.1043 688.467 54.0938 689.6 53.1813L686.463 49.2875ZM683 56.3672C683 59.4792 684.602 61.9232 687.252 63.6092L689.936 59.3908C688.46 58.4518 688 57.4739 688 56.3672H683ZM687.252 63.6092C689.725 65.1833 693.388 66.3312 697.977 67.1916L698.898 62.2772C694.487 61.45 691.587 60.4417 689.936 59.3908L687.252 63.6092ZM697.981 67.1924C702.439 68.0197 706.301 68.9998 709.581 70.123L711.201 65.3927C707.637 64.1721 703.529 63.1366 698.894 62.2763L697.981 67.1924ZM709.577 70.1217C714.996 71.9873 718.834 74.5145 721.316 77.5762C723.771 80.6047 725.047 84.3362 725.047 88.9219H730.047C730.047 83.3357 728.464 78.4539 725.2 74.4277C721.963 70.4347 717.223 67.4658 711.204 65.394L709.577 70.1217ZM725.047 88.9219C725.047 94.9634 722.419 99.8825 716.826 103.823L719.706 107.911C726.487 103.133 730.047 96.7554 730.047 88.9219H725.047ZM716.818 103.829C711.212 107.809 703.793 109.906 694.359 109.906V114.906C704.52 114.906 713.038 112.644 719.713 107.906L716.818 103.829ZM694.359 109.906C688.147 109.906 682.698 108.79 677.964 106.618L675.88 111.163C681.364 113.679 687.541 114.906 694.359 114.906V109.906ZM677.964 106.618C673.198 104.432 669.58 101.508 667.008 97.8818L662.93 100.774C666.076 105.211 670.427 108.662 675.88 111.163L677.964 106.618ZM667.008 97.8818C664.414 94.2246 663.18 90.4799 663.18 86.6016H658.18C658.18 91.6294 659.805 96.3691 662.93 100.774L667.008 97.8818ZM660.68 89.1016H682.828V84.1016H660.68V89.1016ZM680.329 86.6682C680.437 90.7347 681.833 94.1409 684.871 96.356L687.817 92.3159C686.354 91.2497 685.406 89.4997 685.327 86.5349L680.329 86.6682ZM684.899 96.376C687.674 98.342 691.102 99.2266 694.992 99.2266V94.2266C691.852 94.2266 689.513 93.5173 687.789 92.2959L684.899 96.376ZM694.992 99.2266C698.496 99.2266 701.59 98.5269 703.824 96.6876L700.645 92.828C699.691 93.6137 697.957 94.2266 694.992 94.2266V99.2266ZM703.796 96.71C706.033 94.9209 707.195 92.4903 707.195 89.625H702.195C702.195 90.9784 701.717 91.9698 700.673 92.8056L703.796 96.71ZM766.289 16.0078H768.789V13.5078H766.289V16.0078ZM766.289 34.9219H763.789V37.4219H766.289V34.9219ZM778.805 34.9219H781.305V32.4219H778.805V34.9219ZM778.805 51.375V53.875H781.305V51.375H778.805ZM766.289 51.375V48.875H763.789V51.375H766.289ZM779.859 93.4219H782.359V90.4421L779.425 90.9599L779.859 93.4219ZM779.859 110.367L780.618 112.749L782.359 112.194V110.367H779.859ZM742.594 51.375H745.094V48.875H742.594V51.375ZM732.891 51.375H730.391V53.875H732.891V51.375ZM732.891 34.9219V32.4219H730.391V34.9219H732.891ZM742.594 34.9219V37.4219H745.094V34.9219H742.594ZM742.594 16.0078V13.5078H740.094V16.0078H742.594ZM763.789 16.0078V34.9219H768.789V16.0078H763.789ZM766.289 37.4219H778.805V32.4219H766.289V37.4219ZM776.305 34.9219V51.375H781.305V34.9219H776.305ZM778.805 48.875H766.289V53.875H778.805V48.875ZM763.789 51.375V86.1797H768.789V51.375H763.789ZM763.789 86.1797C763.789 89.1809 764.298 91.9968 765.993 93.8456L769.679 90.4669C769.311 90.0657 768.789 88.8972 768.789 86.1797H763.789ZM765.993 93.8456C767.795 95.8114 770.82 96.3438 773.953 96.3438V91.3438C770.993 91.3438 769.939 90.7511 769.679 90.4669L765.993 93.8456ZM773.953 96.3438C776.384 96.3438 778.509 96.1989 780.294 95.8838L779.425 90.9599C778.023 91.2074 776.21 91.3438 773.953 91.3438V96.3438ZM777.359 93.4219V110.367H782.359V93.4219H777.359ZM779.1 107.985C775.089 109.264 770.893 109.906 766.5 109.906V114.906C771.389 114.906 776.099 114.19 780.618 112.749L779.1 107.985ZM766.5 109.906C758.682 109.906 753.423 108.059 750.187 104.862L746.673 108.419C751.218 112.909 758.005 114.906 766.5 114.906V109.906ZM750.187 104.862C746.945 101.659 745.094 96.5833 745.094 89.1328H740.094C740.094 97.3386 742.133 103.935 746.673 108.419L750.187 104.862ZM745.094 89.1328V51.375H740.094V89.1328H745.094ZM742.594 48.875H732.891V53.875H742.594V48.875ZM735.391 51.375V34.9219H730.391V51.375H735.391ZM732.891 37.4219H742.594V32.4219H732.891V37.4219ZM745.094 34.9219V16.0078H740.094V34.9219H745.094ZM742.594 18.5078H766.289V13.5078H742.594V18.5078ZM834.211 56.3672L834.031 58.8607L836.66 59.0502L836.71 56.4151L834.211 56.3672ZM826.406 55.8047L826.586 53.3112L826.496 53.3047H826.406V55.8047ZM812.062 62.8359L809.783 61.81L809.562 62.2994V62.8359H812.062ZM812.062 111V113.5H814.562V111H812.062ZM788.367 111H785.867V113.5H788.367V111ZM788.367 34.9219V32.4219H785.867V34.9219H788.367ZM810.586 34.9219L813.078 34.7247L812.896 32.4219H810.586V34.9219ZM811.359 44.6953L808.867 44.8925L809.54 53.4005L813.564 45.8739L811.359 44.6953ZM834.633 34.3594L837.132 34.4073L837.169 32.5101L835.351 31.9648L834.633 34.3594ZM834.391 53.8737L826.586 53.3112L826.227 58.2982L834.031 58.8607L834.391 53.8737ZM826.406 53.3047C818.48 53.3047 812.47 55.8376 809.783 61.81L814.342 63.8618C815.873 60.4593 819.426 58.3047 826.406 58.3047V53.3047ZM809.562 62.8359V111H814.562V62.8359H809.562ZM812.062 108.5H788.367V113.5H812.062V108.5ZM790.867 111V34.9219H785.867V111H790.867ZM788.367 37.4219H810.586V32.4219H788.367V37.4219ZM808.094 35.1191L808.867 44.8925L813.852 44.4981L813.078 34.7247L808.094 35.1191ZM813.564 45.8739C817.211 39.0522 822.01 36.0156 828.023 36.0156V31.0156C819.786 31.0156 813.477 35.4322 809.155 43.5167L813.564 45.8739ZM828.023 36.0156C830.379 36.0156 832.329 36.2784 833.914 36.7539L835.351 31.9648C833.186 31.3154 830.731 31.0156 828.023 31.0156V36.0156ZM832.133 34.3115L831.711 56.3193L836.71 56.4151L837.132 34.4073L832.133 34.3115ZM837.234 72.2578H834.734V72.2797L834.735 72.3017L837.234 72.2578ZM841.664 52.0078L843.9 53.1259L843.904 53.1188L841.664 52.0078ZM900.797 44.1328L898.964 45.8326L898.969 45.8386L900.797 44.1328ZM900.727 102L898.911 100.282L898.91 100.282L900.727 102ZM847.922 102.703L846.16 104.477L846.167 104.484L847.922 102.703ZM837.305 76.2656L834.805 76.3095L834.806 76.3455L834.807 76.3815L837.305 76.2656ZM860.93 73.7344L858.43 73.6934L858.43 73.7139V73.7344H860.93ZM886.945 74.6484L889.445 74.6845L889.445 74.6665V74.6484H886.945ZM861 69.4453L858.504 69.3061L858.501 69.3552L858.5 69.4043L861 69.4453ZM839.734 72.2578C839.734 64.9938 841.145 58.6363 843.9 53.1258L839.428 50.8898C836.277 57.1918 834.734 64.3343 834.734 72.2578H839.734ZM843.904 53.1188C846.647 47.5883 850.553 43.3938 855.639 40.463L853.142 36.1308C847.166 39.575 842.587 44.5211 839.424 50.8968L843.904 53.1188ZM855.639 40.463C860.731 37.5285 866.778 36.0156 873.867 36.0156V31.0156C866.05 31.0156 859.113 32.6903 853.142 36.1308L855.639 40.463ZM873.867 36.0156C884.698 36.0156 892.96 39.3568 898.964 45.8325L902.63 42.4331C895.509 34.7525 885.817 31.0156 873.867 31.0156V36.0156ZM898.969 45.8386C904.995 52.2943 908.141 61.2102 908.141 72.8906H913.141C913.141 60.2898 909.724 50.0338 902.625 42.427L898.969 45.8386ZM908.141 72.8906V73.7344H913.141V72.8906H908.141ZM908.141 73.7344C908.141 85.1115 904.984 93.8642 898.911 100.282L902.542 103.718C909.688 96.1671 913.141 86.076 913.141 73.7344H908.141ZM898.91 100.282C892.904 106.631 884.704 109.906 874.008 109.906V114.906C885.812 114.906 895.424 111.244 902.543 103.718L898.91 100.282ZM874.008 109.906C863.713 109.906 855.69 106.85 849.677 100.923L846.167 104.484C853.278 111.493 862.646 114.906 874.008 114.906V109.906ZM849.683 100.929C843.652 94.9406 840.295 86.7675 839.802 76.1497L834.807 76.3815C835.346 87.9825 839.067 97.4344 846.16 104.477L849.683 100.929ZM839.804 76.2218L839.734 72.214L834.735 72.3017L834.805 76.3095L839.804 76.2218ZM858.43 73.7344C858.43 80.9241 859.537 86.6917 862.159 90.5967L866.31 87.8095C864.526 85.1521 863.43 80.6072 863.43 73.7344H858.43ZM862.159 90.5967C864.874 94.6408 868.952 96.625 874.008 96.625V91.625C870.439 91.625 868.001 90.328 866.31 87.8095L862.159 90.5967ZM874.008 96.625C878.982 96.625 882.99 94.6484 885.653 90.6391C888.198 86.8078 889.349 81.3703 889.445 74.6845L884.446 74.6123C884.355 80.911 883.255 85.2118 881.488 87.8726C879.839 90.3555 877.471 91.625 874.008 91.625V96.625ZM889.445 74.6484V72.2578H884.445V74.6484H889.445ZM889.445 72.2578C889.445 65.2515 888.34 59.5678 885.782 55.5657C883.102 51.373 879.001 49.2969 873.867 49.2969V54.2969C877.452 54.2969 879.89 55.631 881.569 58.2585C883.371 61.0767 884.445 65.6235 884.445 72.2578H889.445ZM873.867 49.2969C869.189 49.2969 865.35 51.0858 862.689 54.7362C860.135 58.2393 858.844 63.2121 858.504 69.3061L863.496 69.5845C863.812 63.9129 864.994 60.0615 866.729 57.6818C868.357 55.4493 870.623 54.2969 873.867 54.2969V49.2969ZM858.5 69.4043L858.43 73.6934L863.429 73.7754L863.5 69.4863L858.5 69.4043Z" fill="#E9C9BB"/>
</svg>
